<svg width="344" height="437" viewBox="0 0 344 437" fill="none" xmlns="http://www.w3.org/2000/svg">
<path d="M121 277H85.0908V160.636H122.591C133.879 160.636 143.538 162.966 151.568 167.625C159.598 172.246 165.754 178.894 170.034 187.568C174.314 196.204 176.454 206.545 176.454 218.591C176.454 230.712 174.295 241.148 169.977 249.898C165.659 258.61 159.371 265.314 151.114 270.011C142.856 274.67 132.818 277 121 277ZM99.1817 264.5H120.091C129.712 264.5 137.686 262.644 144.011 258.932C150.337 255.22 155.053 249.935 158.159 243.079C161.265 236.223 162.818 228.06 162.818 218.591C162.818 209.197 161.284 201.11 158.216 194.329C155.148 187.511 150.564 182.284 144.466 178.648C138.367 174.973 130.773 173.136 121.682 173.136H99.1817V264.5Z" fill="#FF4C29"/>
<path d="M168.091 277V160.636H207.409C216.5 160.636 223.962 162.189 229.795 165.295C235.629 168.364 239.947 172.587 242.75 177.966C245.553 183.345 246.954 189.462 246.954 196.318C246.954 203.174 245.553 209.254 242.75 214.557C239.947 219.86 235.648 224.026 229.852 227.057C224.057 230.049 216.651 231.545 207.636 231.545H175.818V218.818H207.182C213.394 218.818 218.394 217.909 222.182 216.091C226.007 214.273 228.773 211.697 230.477 208.364C232.22 204.992 233.091 200.977 233.091 196.318C233.091 191.659 232.22 187.587 230.477 184.102C228.735 180.617 225.951 177.928 222.125 176.034C218.299 174.102 213.242 173.136 206.954 173.136H182.182V277H168.091ZM222.864 224.727L251.5 277H235.136L206.954 224.727H222.864Z" fill="#FF4C29"/>
<path d="M135.5 437H0.84082V0.63623H141.466C183.795 0.63623 220.017 9.37203 250.131 26.8436C280.244 44.1732 303.327 69.1021 319.378 101.631C335.429 134.017 343.454 172.795 343.454 217.966C343.454 263.42 335.358 302.554 319.165 335.366C302.972 368.037 279.392 393.179 248.426 410.792C217.46 428.264 179.818 437 135.5 437ZM53.6817 390.125H132.091C168.17 390.125 198.071 383.165 221.793 369.244C245.514 355.324 263.199 335.508 274.846 309.798C286.494 284.088 292.318 253.477 292.318 217.966C292.318 182.739 286.565 152.412 275.06 126.986C263.554 101.417 246.366 81.8152 223.497 68.1788C200.628 54.4004 172.148 47.5112 138.057 47.5112H53.6817V390.125Z" fill="#FF4C29"/>
</svg>
